<svg aria-hidden="true" version="1.1" xmlns="http://www.w3.org/2000/svg" x="0px" y="0px" width="80px" height="40px" viewBox="266 376 80 40" enable-background="new 266 376 80 40">
<g>
	<path d="M306.058,412.359c-0.014,0-0.027,0-0.041,0c-0.015,0-0.028,0-0.042,0H306.058z"/>
	<path d="M282.569,414.912c0,0.488,0.474,1.088,1.06,1.088c0,0,5.97,0,6.402,0c0.711,0,1.074-0.488,1.074-0.99&#13;&#10;&#9;&#9;v-2.106l-8.537-0.015C282.569,412.889,282.569,414.744,282.569,414.912z"/>
	<path d="M321.081,414.912c0,0.488,0.475,1.088,1.06,1.088c0,0,5.971,0,6.402,0c0.711,0,1.074-0.488,1.074-0.99&#13;&#10;&#9;&#9;v-2.106l-8.536-0.015C321.081,412.889,321.081,414.744,321.081,414.912z"/>
</g>
<g>
	<g>
		<path d="M314.888,399.416L314.888,399.416c0.445-0.824,1.06-1.675,1.465-2.205c-0.405,0-0.837,0.015-1.367,0.028&#13;&#10;&#9;&#9;&#9;c-1.716,0.028-4.297,0.07-8.83,0.07h-0.111c-4.519,0-7.113-0.042-8.815-0.07c-0.53-0.014-0.977-0.014-1.38-0.028&#13;&#10;&#9;&#9;&#9;c0.404,0.517,1.032,1.381,1.464,2.232l0.125,0.194c0.502,0.74,1.339,1.967,0.418,3.794c0,0.015-0.125,0.238-0.306,0.601h17.003&#13;&#10;&#9;&#9;&#9;c-0.182-0.349-0.307-0.586-0.307-0.601c-0.906-1.813-0.056-3.04,0.46-3.779C314.79,399.582,314.846,399.498,314.888,399.416z&#13;&#10;&#9;&#9;&#9; M306.1,402.052c-1.311,0-2.385-0.795-2.385-1.771s1.074-1.772,2.385-1.772c1.312,0,2.386,0.796,2.386,1.772&#13;&#10;&#9;&#9;&#9;S307.411,402.052,306.1,402.052z"/>
		<path d="M320.411,410.114c-0.279-0.503-4.157-6.459-4.771-7.185c-0.475-0.544-0.823-1.13-1.019-1.478&#13;&#10;&#9;&#9;&#9;c-0.097,0.474-0.056,1.018,0.266,1.673c0.084,0.154,2.009,3.906,2.329,4.617c0.362,0.823,0.405,1.521,0.098,1.994&#13;&#10;&#9;&#9;&#9;c-0.293,0.447-0.851,0.685-1.674,0.685h-19.138c-0.836,0-1.422-0.224-1.702-0.67c-0.46-0.697-0.028-1.674,0.126-1.994&#13;&#10;&#9;&#9;&#9;c0.321-0.712,2.246-4.464,2.33-4.617c0.307-0.627,0.362-1.145,0.307-1.604c-0.195,0.349-0.544,0.907-0.977,1.395&#13;&#10;&#9;&#9;&#9;c-0.627,0.726-4.491,6.682-4.784,7.185c-0.112,0.195-0.279,0.753-0.056,1.129c0.167,0.293,0.572,0.433,1.172,0.433h26.391&#13;&#10;&#9;&#9;&#9;c0.613,0,1.004-0.153,1.171-0.433C320.69,410.867,320.522,410.31,320.411,410.114z"/>
		<path d="M281.3,387.922c0,0,1.604,0.711,2.497,0.809l0.195,1.171c0,0-1.325,1.353-1.27,3.069&#13;&#10;&#9;&#9;&#9;c0,0-2.078,0.864-2.078,2.999c0,0,0.014,0.167,0.014,0.432c1.102,2.414,2.037,4.017,6.43,4.296&#13;&#10;&#9;&#9;&#9;c2.943,0.182,8.495,0.489,9.834,0.502c0.07-0.126,0.125-0.236,0.167-0.292c0.014-0.251-0.125-0.642-0.363-1.103l-0.014-0.014l0,0&#13;&#10;&#9;&#9;&#9;c-0.433-0.822-1.144-1.842-1.744-2.566c-1.06-1.577-7.434-8.342-8.453-9.639c-0.307,0-0.767,0-1.102,0&#13;&#10;&#9;&#9;&#9;c0,0-0.014-2.134-0.014-2.385c0-0.251,0-0.767-1.06-0.711c-1.061,0.056-2.79,0.153-3.543,1.06&#13;&#10;&#9;&#9;&#9;C280.044,386.485,280.588,387.559,281.3,387.922z M285.121,394.157c0,0,1.618,0.488,2.441,0.684&#13;&#10;&#9;&#9;&#9;c0.823,0.195,1.325,0.433,1.757,0.627c0.446,0.195,1.521,1.073,2.539,1.758c1.032,0.684,0.684,1.716,0.642,2.203&#13;&#10;&#9;&#9;&#9;c-4.087-0.236-7.561-1.032-8.858-1.408c-0.321-0.084-0.516-0.433-0.446-0.698c0.195-0.822,0.544-2.371,0.753-2.817&#13;&#10;&#9;&#9;&#9;C284.243,393.863,284.884,394.101,285.121,394.157z"/>
		<path d="M295.555,408.035c-0.279,0.628-0.335,1.074-0.168,1.34c0.196,0.292,0.711,0.361,1.116,0.361h19.124&#13;&#10;&#9;&#9;&#9;c0.391,0,0.893-0.056,1.087-0.361c0.168-0.266,0.126-0.74-0.139-1.326c-0.195-0.432-1.032-2.092-1.646-3.292h-17.729&#13;&#10;&#9;&#9;&#9;C296.587,405.943,295.75,407.604,295.555,408.035z"/>
	</g>
	<path d="M296.043,402.47c0.167-0.195,0.306-0.391,0.446-0.571c-2.315-0.07-9.108-0.475-9.429-0.503&#13;&#10;&#9;&#9;c-3.85-0.251-5.3-1.507-6.318-3.292c0.07,1.772,0.167,4.031,0.167,4.311c0,0.46,0.809,6.598,1.06,7.505&#13;&#10;&#9;&#9;c0.251,0.906,0.614,1.729,2.079,1.924c0.655,0.084,3.835,0.195,7.713,0.294c-0.279-0.126-0.488-0.307-0.628-0.559&#13;&#10;&#9;&#9;c-0.362-0.613-0.167-1.423,0.056-1.813C291.44,409.305,295.359,403.265,296.043,402.47z M290.003,408.914&#13;&#10;&#9;&#9;c-0.767,1.018-1.688,0.865-2.273,0.865h-2.455c-2.316-0.14-1.451-2.413-1.451-2.413c0.237-1.061,0.823-1.298,1.492-1.298h5.021&#13;&#10;&#9;&#9;c1.353,0,1.06,0.823,0.92,1.116C291.12,407.464,290.771,407.896,290.003,408.914z"/>
	<path d="M325.069,401.396c-0.32,0.014-6.945,0.419-9.346,0.503c0.14,0.195,0.279,0.391,0.447,0.571&#13;&#10;&#9;&#9;c0.697,0.795,4.604,6.835,4.854,7.31c0.223,0.391,0.418,1.2,0.056,1.813c-0.14,0.238-0.35,0.419-0.629,0.559&#13;&#10;&#9;&#9;c3.809-0.098,6.878-0.209,7.533-0.293c1.464-0.21,1.827-1.018,2.078-1.926c0.251-0.906,1.061-7.043,1.061-7.503&#13;&#10;&#9;&#9;c0-0.266,0.084-2.33,0.153-4.046C330.314,399.945,328.836,401.145,325.069,401.396z M326.952,409.779h-2.468&#13;&#10;&#9;&#9;c-0.586,0-1.492,0.14-2.273-0.865c-0.768-1.019-1.116-1.45-1.256-1.729c-0.14-0.293-0.433-1.116,0.921-1.116h5.021&#13;&#10;&#9;&#9;c0.67,0,1.256,0.237,1.493,1.298C328.39,407.366,329.269,409.64,326.952,409.779z"/>
	<path d="M329.31,392.971c0.057-1.73-1.269-3.404-1.269-3.404l0.21-1.171c0.557-0.098,2.328-0.656,2.328-0.656&#13;&#10;&#9;&#9;c0.712-0.363,1.423-1.269,0.656-2.176c-0.768-0.906-2.483-1.018-3.558-1.06c-1.06-0.056-1.06,0.46-1.06,0.711&#13;&#10;&#9;&#9;s-0.014,2.385-0.014,2.385c-0.195,0-0.433,0-0.643,0c-1.282,1.576-7.685,8.076-8.689,9.597c-0.948,1.158-2.189,3.014-2.135,3.711&#13;&#10;&#9;&#9;c0.028,0.056,0.084,0.153,0.154,0.292c1.451-0.027,6.849-0.334,9.736-0.502c4.352-0.279,5.314-1.841,6.332-3.934&#13;&#10;&#9;&#9;c0.015-0.474,0.028-0.795,0.028-0.795C331.389,393.835,329.31,392.971,329.31,392.971z M328.528,398.021&#13;&#10;&#9;&#9;c-1.311,0.362-4.77,1.172-8.856,1.408c-0.042-0.487-0.391-1.52,0.642-2.203c1.032-0.685,2.105-1.563,2.539-1.758&#13;&#10;&#9;&#9;c0.432-0.195,0.92-0.432,1.757-0.627c0.822-0.195,2.441-0.684,2.441-0.684c0.236-0.056,0.879-0.293,1.172,0.334&#13;&#10;&#9;&#9;c0.209,0.46,0.558,1.996,0.753,2.818C329.031,397.588,328.836,397.937,328.528,398.021z"/>
	<path d="M320.48,378.618c-0.362-0.502-0.962-1.019-0.962-1.019c-1.214-0.767-9.332-1.213-13.488-1.213h-0.014&#13;&#10;&#9;&#9;c-4.157,0-12.275,0.46-13.488,1.213c0,0-0.614,0.502-0.963,1.019c-0.655,0.753-3.668,6.04-4.547,8.467&#13;&#10;&#9;&#9;c0.99,1.255,6.793,7.406,8.313,9.429c0.53,0,1.144,0.014,1.925,0.027c1.702,0.028,4.296,0.071,8.801,0.071h0.112&#13;&#10;&#9;&#9;c4.519,0,7.1-0.043,8.816-0.071c0.781-0.014,1.381-0.027,1.924-0.027c1.368-1.799,6.528-7.085,8.259-9.052&#13;&#10;&#9;&#9;C324.498,385.271,321.178,379.413,320.48,378.618z M306.002,386.82h-17.226c0.502-2.274,2.873-6.333,3.543-7.1&#13;&#10;&#9;&#9;c0.335-0.474,0.906-0.962,0.906-0.962c1.145-0.726,8.83-1.158,12.75-1.158h0.014c3.934,0,11.605,0.433,12.748,1.158&#13;&#10;&#9;&#9;c0,0,0.573,0.474,0.908,0.962c0.669,0.768,3.04,4.813,3.543,7.1H306.002z"/>
</g>
</svg>