<svg aria-hidden="true" version="1.1" xmlns="http://www.w3.org/2000/svg" x="0px" y="0px" width="80px" height="40px" viewBox="266 376 80 40" enable-background="new 266 376 80 40">
<path d="M346,408.405c0-1.519-1.06-2.019-1.461-2.309c0.018-0.846-0.214-3.002-0.252-3.366&#13;&#10;&#9;c-0.096-0.404-0.116-1.04-0.096-1.387c0.02-0.597-0.463-0.577-0.694-0.538c-2.347,0.557-5.312-0.308-6.061-0.616&#13;&#10;&#9;c-5.121-2.098-9.353-3.426-13.145-4.292c-0.096-0.461,0.02-0.828,0.116-1.02c0,0-1.097-0.346-2.962,0.442&#13;&#10;&#9;c-4.101-0.712-7.719-0.866-11.491-0.827c-7.908,0.076-15.971,4.695-19.377,6.658c-0.674,0-3.772,0.114-4.042,0.114&#13;&#10;&#9;c-2.579,0.077-7.736,0.482-11.565,1.116c-3.714,0.616-6.928,3.444-6.928,3.444c-0.308,0.249-1.347,1.176-1.54,2.001&#13;&#10;&#9;c-0.5,1.81,0,4.158,0.173,4.755c0.193,0.749-0.192,1.039-0.327,1.115c-0.116,0.077-0.366,0.173-0.404,0.461&#13;&#10;&#9;c-0.039,0.271,0.404,0.771,0.558,0.849c1.001,0.864,1.213,0.788,1.213,0.788l5.792,0.021c-0.231-0.693-0.385-1.426-0.385-2.177&#13;&#10;&#9;c0-3.79,3.06-6.848,6.851-6.848c3.791,0,6.852,3.058,6.852,6.848c0,0.771-0.154,1.522-0.404,2.216l5.812,0.017&#13;&#10;&#9;c-1.059-0.692-1.636-1.634-1.944-2.114c-0.058-0.118-0.116-0.194-0.154-0.251c-0.403-0.521-3.56-6.582-3.983-7.447&#13;&#10;&#9;c-0.23-0.464-0.27-0.848-0.096-1.155c0.23-0.441,0.75-0.501,0.962-0.521c0.385-0.057,1.097-0.077,1.829-0.077v0.771&#13;&#10;&#9;c-0.79,0-1.444,0.038-1.732,0.077c-0.308,0.038-0.366,0.097-0.385,0.117c-0.019,0.036-0.019,0.172,0.115,0.44&#13;&#10;&#9;c0.54,1.08,3.599,6.89,3.907,7.332c0.057,0.078,0.116,0.174,0.192,0.308c0.501,0.808,1.521,2.484,3.926,2.521l27.866,0.057&#13;&#10;&#9;c-0.251-0.71-0.425-1.48-0.425-2.289c0-3.79,3.059-6.848,6.851-6.848c3.791,0,6.852,3.058,6.852,6.848&#13;&#10;&#9;c0,0.828-0.174,1.6-0.425,2.331l7.429,0.02c0.191-0.214,0.963-1.868,0.963-1.868c0.191-0.076,0.673-0.135,0.885-0.5&#13;&#10;&#9;c0.192-0.366,0.52-0.906,0.808-1.771c0.27-0.825,0.289-1.462,0.27-1.865C345.923,409.618,346,408.888,346,408.405z M274.009,405.174&#13;&#10;&#9;c-0.289,0.192-2.733,2.212-2.733,2.212h-0.654c0,0-0.963-0.019-1.116-0.019c-0.174,0-0.078-0.193,0.019-0.288&#13;&#10;&#9;c0.097-0.098,1.29-0.887,1.559-1.059c0.096-0.097,0.365-0.77,1.155-0.847c0,0,1.443-0.211,1.635-0.211&#13;&#10;&#9;C274.047,404.963,274.066,405.096,274.009,405.174z M292.483,402.19c0,0,6.677-4.079,11.988-5.482&#13;&#10;&#9;c2.713-0.713,6.332-0.713,10.141-0.251l-1.269,5.195C305.666,401.786,295.312,401.999,292.483,402.19z M327.372,400.054&#13;&#10;&#9;c-0.31,0.078-4.235,1.021-5.273,1.425c0,0-3.156,0.058-7.427,0.135l1.231-4.984c3.231,0.482,6.523,1.252,9.466,2.232&#13;&#10;&#9;c0.521,0.173,1.906,0.616,2.117,0.673c0.214,0.059,0.271,0.116,0.271,0.232C327.757,399.882,327.7,399.998,327.372,400.054z&#13;&#10;&#9; M342.631,405.096c-0.172,0.02-0.364,0.02-0.48-0.019c-0.115-0.037-5.08-1.847-5.293-1.943c-0.21-0.095-0.308-0.191-0.287-0.327&#13;&#10;&#9;c0-0.057,0.019-0.231,0.347-0.231c0.348,0,3.521-0.076,4.175-0.076c0.655,0,1.52,0,1.752,0.096c0.231,0.097,1.481,0.674,1.481,0.674&#13;&#10;&#9;l0.154,1.539C344.151,404.884,342.805,405.077,342.631,405.096z"/>
</svg>