<svg aria-hidden="true" version="1.1" xmlns="http://www.w3.org/2000/svg" x="0px" y="0px" width="80px" height="40px" viewBox="0 0 60 46.2" enable-background="new 0 0 60 46.2;">
<path class="st0" d="M17.6,30.6c1.3,1.3,1.3,3.3,0,4.5L7.5,45.2c-1.3,1.2-3.3,1.2-4.5,0l-2.1-2.1c-1.3-1.3-1.3-3.3,0-4.5L11,28.5&#10;&#9;c1.3-1.3,3.3-1.2,4.5,0L17.6,30.6z M43.7,26.1h5.5c0.4,0,0.5,0,0.6-0.1c0.1-0.1,0.1-0.2-0.1-0.7c-0.1-0.2-0.6-1.3-1.1-2.2h-2.8&#10;&#9;C45.2,24.2,44.5,25.2,43.7,26.1z M47.4,18c-0.2,1.4-0.6,2.9-1.2,4.2h1.9c-0.7-1.3,0-2.4,0.2-2.9c0,0,0.6-1,0.8-1.3&#10;&#9;C49.2,18,48.5,18,47.4,18z M43.1,3.9c3.6,0,8,0.4,8.6,0.7c1,0.7,3.6,6.4,3.8,6.8l0.6-0.7c-0.2-0.5-2.9-6.1-4-7c-1.2-0.8-9.5-1-9.5-1&#10;&#9;c-0.2,0-0.5,0-0.7,0C42.5,3.3,42.7,3.5,43.1,3.9z M47.6,15.4c0,0.6,0,1.1-0.1,1.6c0.2,0,0.6,0,0.8,0c0.6,0,1.1,0,1.6,0&#10;&#9;c0.2-0.2,0.5-0.5,1-1c0.7-0.7,2-1.9,4.7-4.6c-1.4,0-4.7-0.1-8.3-0.1C47.5,12.8,47.6,14.1,47.6,15.4z M57.8,28.6&#10;&#9;c-0.4,0-3.2,0.1-4.8,0.1c0,0.8,1,1.3,1.4,1.3c0.6,0,3.6,0,3.7,0c1,0,1.3-1.2,1.3-2.3v-0.1C59.2,28.2,58.7,28.5,57.8,28.6z&#10;&#9; M50.6,24.6c-0.7-1.2-1.4-2.4-1.7-2.8c0,0.1,1.4,2.6,1.6,3.1c0.1,0.2,0.5,1,0.1,1.6c-0.2,0.4-0.7,0.6-1.3,0.6h-6.2&#10;&#9;c-0.4,0.4-0.6,0.6-1,0.8h9.7c0.5,0,0.7-0.4,0.5-0.7C52.2,27,51.3,25.8,50.6,24.6z M60,16.9v2.4c0,4.3-0.7,6.6-1,7.2&#10;&#9;c-0.1,0.6-0.5,1.2-1.4,1.3c-0.4,0-2.3,0.1-4.6,0.2c0.1-0.5,0-1-0.1-1.2c-0.1-0.1-0.8-1.4-1.6-2.6c-0.7-1.2-1.4-2.4-1.9-3.1&#10;&#9;c-0.5-0.5-0.5-0.7-0.5-1c0-1.2,4.7-5.4,7.6-8.5c0,0,0-1.9,0-2c0-0.1,0.1-0.5,0.7-0.5h0.1c0.7,0,1.9,0.1,2.4,0.7&#10;&#9;c0.5,0.6,0.1,1.3-0.4,1.6c0,0-1.1,0.5-1.7,0.6l-0.1,0.8c0,0,1,1,0.8,2.2C58.6,14.8,60,15.4,60,16.9z M57.8,24.7&#10;&#9;c-0.1-0.7-0.5-0.8-1-0.8h-3.5c-1,0-0.7,0.6-0.6,0.7c0.1,0.2,0.4,0.5,0.8,1.2c0.5,0.7,1.2,0.6,1.6,0.6h1.7&#10;&#9;C58.4,26.2,57.8,24.7,57.8,24.7z M58.3,17.8c-0.1-0.6-0.4-1.7-0.5-1.9c-0.2-0.5-0.6-0.2-0.8-0.2c-0.4,0-0.8,0.2-1.7,0.5&#10;&#9;c-0.6,0.1-1,0.4-1.2,0.5c-0.4,0.2-1.1,0.7-1.7,1.2c-0.7,0.5-0.5,1.2-0.5,1.6c2.8-0.1,5.2-0.7,6.1-1C58.2,18.2,58.3,18,58.3,17.8z&#10;&#9; M35.4,9.3L35,9.9c2.2,0.8,3.7,2.8,3.7,5.3c0,0.4-0.1,0.8-0.1,1.1c0,0.1-0.4,0.8-0.7,0.8c-1.1,0.1-6,0.1-7.1,0c-0.5,0-1.2,0-0.8-0.8&#10;&#9;c0.5-1.4,4.6-6.2,4.7-6.5c0.1-0.4,0.1-0.6-0.5-0.7c-1.1-0.2-2-0.2-3.2-0.2c-5.5,0.2-8.8,3.1-8.8,6.8c0.1,3.2,3.1,6.4,9.1,6.2&#10;&#9;c3.4,0,6.1-1.2,7.1-2.6h-1.6c-1.2,1.1-3.1,1.7-5.5,1.8c-4.6,0.4-7.8-2.2-7.8-5.5c0-2.9,2.6-5.8,7.2-5.9H31c0.1,0,0.6,0.1,0,0.7&#10;&#9;c-0.1,0.2-3.6,4.6-3.8,5.4c-0.2,0.7-0.4,1-0.4,1.4c0,0.5,0.4,1,0.7,1.2c0.6,0.2,1.2,0.4,1.8,0.4c1.2,0.1,8.9,0,9,0&#10;&#9;c0.4,0,0.5,0,0.6-0.1c0.7-0.6,1.1-2,1.1-3.2C40.1,12.6,37.9,10.5,35.4,9.3z M42.2,26.4c-5.3,5.3-13.6,6-19.6,1.9l-3.4,3.4&#10;&#9;c-0.2-0.6-0.5-1.2-1-1.7l-2.1-2.1c-0.4-0.4-0.9-0.7-1.5-0.9l3.3-3.3c-3.7-6-3-13.9,2.2-19.1c6-6,15.9-6,22,0&#10;&#9;C48.2,10.5,48.2,20.4,42.2,26.4z M39.7,24c4.7-4.7,4.7-12.3,0-16.9C35,2.3,27.4,2.3,22.8,7c-4.7,4.7-4.7,12.3,0,16.9&#10;&#9;S35,28.6,39.7,24z"/>
</svg>