<svg aria-hidden="true" version="1.1" xmlns="http://www.w3.org/2000/svg" x="0px" y="0px" width="80px" height="40px" viewBox="266 376 80 40" enable-background="new 266 376 80 40">
<path d="M314.001,379.237c-4.415-4.431-11.602-4.431-16.016,0c-3.4,3.399-4.174,8.411-2.369,12.551l10.184,24.298&#13;&#10;&#9;l10.794-24.797C318.126,387.245,317.271,382.491,314.001,379.237z M311.761,389.774c-0.064,0.064-0.193,0.113-0.387,0.129&#13;&#10;&#9;c-0.097,0-5.752,0.064-6.654-0.016c-0.402-0.033-0.902-0.097-1.305-0.354c-0.273-0.161-0.5-0.532-0.5-0.918&#13;&#10;&#9;c0-0.419,0.08-0.548,0.307-1.047c0.241-0.564,2.738-3.819,2.916-4.012c0.387-0.435,0.129-0.5,0-0.5c-0.049,0-0.29,0-0.338,0&#13;&#10;&#9;c-3.433,0.097-5.365,2.288-5.334,4.318c0.032,2.481,2.418,4.27,5.769,4.173c1.757-0.064,3.239-0.5,4.157-1.354l1.111-0.032&#13;&#10;&#9;c-0.773,1.015-2.804,1.949-5.301,1.998c-4.383,0.081-6.719-2.288-6.768-4.625c-0.049-2.739,2.4-4.995,6.461-5.011&#13;&#10;&#9;c0.936,0,1.596,0.064,2.369,0.225c0.499,0.097,0.531,0.338,0.402,0.516c-0.112,0.178-3.045,3.69-3.545,4.866&#13;&#10;&#9;c-0.273,0.645,0.339,0.596,0.58,0.628c0.79,0.064,4.432,0.113,5.302,0.048c0.338-0.016,0.467-0.484,0.516-0.628&#13;&#10;&#9;c0.048-0.193,0.096-0.548,0.096-0.806c0.017-1.869-1.144-3.271-2.786-3.915l0.354-0.452c1.772,0.677,3.433,2.224,3.433,4.383&#13;&#10;&#9;C312.567,388.292,312.276,389.307,311.761,389.774z"/>
</svg>